# xmcd
#
# Track frame offsets:
#	150
#	12755
#	25607
#	39735
#	55677
#	68112
#	80022
#	98630
#	114925
#	129452
#	146107
#
# Disc length: 1992 seconds
#
# Revision: 2
# Processed by: cddbd v1.5.2PL0 Copyright (c) Steve Scherf et al.
# Submitted via: dBpowerAMP V4.0
#
DISCID=8807c60b
DTITLE=Jim Witter - Jim Witter
DYEAR=1993
DGENRE=Country
TTITLE0=Distant Drum
TTITLE1=Everything and More
TTITLE2=Stolen Moments
TTITLE3=Sweet Sweet Poison
TTITLE4=Hurricane Alley
TTITLE5=The Jig Is Up
TTITLE6=The Crossing
TTITLE7=Hey Brando
TTITLE8=When Things Get Back to Normal
TTITLE9=Chevy Coupe
TTITLE10=Stolen Moments/Reprise
EXTD=
EXTT0=
EXTT1=
EXTT2=
EXTT3=
EXTT4=
EXTT5=
EXTT6=
EXTT7=
EXTT8=
EXTT9=
EXTT10=
PLAYORDER=
